<svg viewBox="0 0 240 240" xmlns="http://www.w3.org/2000/svg">
  <!-- Fondo gris claro -->
  <circle cx="120" cy="120" r="115" fill="#f0f0f0" stroke="#e0e0e0" stroke-width="2"/>
  
  <!-- Teal/Verde izquierda (S) -->
  <path d="M 70 80 Q 50 60 50 110 Q 50 150 75 160 L 95 145 Q 75 140 75 110 Q 75 85 95 70 Z" fill="#1a9b7e"/>
  <path d="M 75 160 Q 50 150 50 180 L 75 175 Z" fill="#17866f"/>
  
  <!-- Azul oscuro derecha (S) -->
  <path d="M 145 70 Q 165 60 180 80 Q 190 100 175 140 Q 165 155 145 160 L 145 135 Q 160 135 165 115 Q 170 95 160 85 L 145 95 Z" fill="#001f6e"/>
  
  <!-- Cruz roja (símbolo médico) -->
  <g fill="#e63946">
    <rect x="110" y="50" width="20" height="50" rx="3"/>
    <rect x="90" y="70" width="60" height="20" rx="3"/>
  </g>
  
  <!-- Blanco detalles -->
  <circle cx="80" cy="125" r="6" fill="#ffffff"/>
  <path d="M 145 110 L 155 105 L 150 115" fill="#ffffff"/>
  
  <!-- Texto "Aragua" -->
  <text x="120" y="205" font-size="28" font-weight="bold" fill="#e63946" text-anchor="middle" font-family="Arial, sans-serif" letter-spacing="1">Aragua</text>
</svg>